<svg xmlns="http://www.w3.org/2000/svg" xmlns:xlink="http://www.w3.org/1999/xlink" width="1654" height="472" viewBox="0 0 1654 472">
  <metadata><?xpacket begin="﻿" id="W5M0MpCehiHzreSzNTczkc9d"?>
<x:xmpmeta xmlns:x="adobe:ns:meta/" x:xmptk="Adobe XMP Core 5.6-c142 79.160924, 2017/07/13-01:06:39        ">
   <rdf:RDF xmlns:rdf="http://www.w3.org/1999/02/22-rdf-syntax-ns#">
      <rdf:Description rdf:about=""/>
   </rdf:RDF>
</x:xmpmeta>
                                                                                                    
                                                                                                    
                                                                                                    
                                                                                                    
                                                                                                    
                                                                                                    
                                                                                                    
                                                                                                    
                                                                                                    
                                                                                                    
                                                                                                    
                                                                                                    
                                                                                                    
                                                                                                    
                                                                                                    
                                                                                                    
                                                                                                    
                                                                                                    
                                                                                                    
                                                                                                    
                           
<?xpacket end="w"?></metadata>
<defs>
    <style>
      .cls-1 {
        fill: #1c97bb;
        filter: url(#filter);
      }

      .cls-1, .cls-2 {
        fill-rule: evenodd;
      }

      .cls-2 {
        fill: #242424;
      }
    </style>
    <filter id="filter" x="427" y="135.813" width="1007.03" height="217.187" filterUnits="userSpaceOnUse">
      <feGaussianBlur result="blur" stdDeviation="5.385" in="SourceAlpha"/>
      <feFlood result="flood" flood-opacity="0.2"/>
      <feComposite result="composite" operator="out" in2="blur"/>
      <feOffset result="offset" dy="13"/>
      <feComposite result="composite-2" operator="in" in2="SourceAlpha"/>
      <feBlend result="blend" mode="multiply" in2="SourceGraphic"/>
    </filter>
  </defs>
  <path id="Color_Fill_1" data-name="Color Fill 1" class="cls-1" d="M1095,225H974c-0.353,10.709-.831,23.639,3,30l118,1v28c-36.27.618-127.588,7.192-142-12-10.623-14.147-7-46.753-7-71,0-17.607-1.783-38.053,5-49,2.96-4.778,10.445-11.046,16-13,14.638-5.148,104.15-2.677,113,3C1099.59,154.56,1095.6,192.717,1095,225Zm25-87c36.52-.389,127.49-7.725,142,12,12.84,17.463,6.33,102.76,6,134-39.8.551-127.05,8.092-143-14-9.71-13.453-5.3-51.149-5-73h120q-0.495-15-1-30l-119-1V138Zm314,39h-28c-0.33-3.333-.67-6.667-1-10-13.38-3.672-80.3-3.92-91,1-0.28,9.26-.92,21.84,2,28,47.38,4.963,117.63-16.6,118,37q-1.005,15.5-2,31c-3.35,8.082-13.03,16.675-22,19-17.7,4.588-96.43,3.686-108-3-10.99-6.354-16.41-16.787-16-35h28q1.005,5,2,10c6.94,4.64,86.93.1,89-3V226c-45.49-11.229-118.76,20.467-119-36-0.06-12.969-2.22-24.593,2-34,3.38-7.543,13.27-15.836,22-18,17.42-4.32,99.6-1.809,109,4C1429.51,148.5,1434.42,159.282,1434,177ZM740,284V173l28-6c0.209,5.661,1.084,6.714,3,10,23.663,0.207,98.439,5.054,114-2,0.984-6.808-1.145-25.481,3-30l26-4v35l-3,11c12.87,9.779,16.183,66.744,5,83C900.207,292.958,782.614,284.478,740,284Zm234-87h93c0.35-10.926.93-24.465-3-31-21.16-.273-76.475-4.866-90,3v28ZM713,311H685V188l28-7V311Zm-54-27H631V206l28-9v87Zm113-79-3,4c-4.174,9.685-2.083,39.26,2,46,22.714,3.084,105.558,6.456,122-2,0.272-13.951,2.785-36.682-2-47Zm376,20c-0.28,9.745-1.11,23.414,2,30l90,1V225h-92ZM754,331v22H427l10-22H754Z"/>
  <path id="Color_Fill_2" data-name="Color Fill 2" class="cls-2" d="M59,30H1591V52H59V30ZM685,76h28V183l-28,7V76ZM73,103c28.85-.363,144.552-5.273,159,4,19.151,12.292,17.092,52.979,12,80,12.87,9.779,16.183,66.744,5,83-15.793,22.958-133.386,14.478-176,14V103Zm381,0h33l68,82c1.923-1.392.6-.1,2-2l67-80h35v96l-28,9V141l-75,88-2-1-72-86V284H454V103Zm286,0c28.82-.409,144.548-5.248,159,4,10.564,6.76,15.119,18.283,15,36l-28,3c0.28-7.4-.546-11.058-3-15-25.322-.261-98.787-6.387-115,3v35l-28,6V103ZM104,131l-3,4c-0.331,13.545-1.876,33.2,3,42,23.663,0.207,98.439,5.054,114-2,2.355-11.357,2.9-35.831-2-44H104Zm176,7c36.522-.389,127.494-7.725,142,12,12.843,17.463,6.329,102.76,6,134-39.8.551-127.051,8.092-143-14-9.712-13.453-5.305-51.149-5-73H400q-0.5-15-1-30l-119-1V138ZM105,205l-3,4c-4.174,9.685-2.083,39.26,2,46,22.714,3.084,105.558,6.456,122-2,0.272-13.951,2.785-36.682-2-47Zm203,20c-0.276,9.745-1.112,23.414,2,30l90,1V225H308Zm700,85h12v24l55,1c9.94,7.174,14.9,61.8,1,69-10.37,8.588-51.12,3.279-68,3V310Zm83,0h12v24l55,1c9.94,7.174,14.9,61.8,1,69-10.37,8.588-51.12,3.279-68,3V310Zm-314,7h12q12.5,35,25,70h1v-2q12.5-34,25-68h14q12.5,35,25,70h1q12.5-35,25-70l12,1-32,89H874l-28-74c-2.293,15.182-21.889,74.112-37,74Q793,362,777,317ZM59,331l380,1-10,21H59V331Zm938,45H933q0.5,9.5,1,19l63,1v11l-67-1c-9.944-7.174-14.9-61.8-1-69,8.922-7.567,49.572-4,61-1C997.084,345.464,997.368,358.069,997,376Zm178-42h11c-0.32,18.131-3.94,49.311,3,62l47-1,3-2V334h11c0.21,21.424,2.44,48.959-2,67-10.63,7.94-64.03,12.46-71-2C1169.85,385.871,1174.78,351.55,1175,334Zm144,0v11l-44,1c-0.33,1-.67,2-1,3q-0.495,29-1,58h-11c-0.39-22.277-3.57-55.716,5-70C1280.05,332.983,1301.43,333.869,1319,334Zm82,42h-64q0.495,9.5,1,19l63,1v11l-67-1c-9.94-7.174-14.9-61.8-1-69,8.92-7.567,49.57-4,61-1C1401.08,345.464,1401.37,358.069,1401,376Zm11-42c21.68-.574,65.85-5.9,73,9,7.04,12.928,2.22,46.683,2,64-20.33.54-66.18,5.866-73-8-3.89-6.987-2.23-23.636-2-34h64c0.55-8.233.85-15.88-4-19l-60-1V334Zm87,0h11c-0.32,18.131-3.94,49.311,3,62l47-1,3-2V334h11c0.21,21.424,2.44,48.959-2,67-10.63,7.94-64.03,12.46-71-2C1493.85,385.871,1498.78,351.55,1499,334ZM933,365h52c0.386-7.192,1.279-16.1-3-19-10.283-4.4-41.641-2.146-49,2v17Zm89-20c-3.53,7.055-5.35,45.28,1,50,10.28,4.4,41.64,2.146,49-2q-0.495-23.5-1-47Zm83,0c-3.53,7.055-5.35,45.28,1,50,10.28,4.4,41.64,2.146,49-2q-0.495-23.5-1-47Zm232,20h52c0.39-7.192,1.28-16.1-3-19-10.28-4.4-41.64-2.146-49,2v17Zm86,11q0.495,8.5,1,17c0.67,1,1.33,2,2,3h50V376h-53Z"/>
</svg>
