<svg xmlns="http://www.w3.org/2000/svg" width="537" height="553" viewBox="0 0 537 553">
  <metadata><?xpacket begin="﻿" id="W5M0MpCehiHzreSzNTczkc9d"?>
<x:xmpmeta xmlns:x="adobe:ns:meta/" x:xmptk="Adobe XMP Core 5.6-c142 79.160924, 2017/07/13-01:06:39        ">
   <rdf:RDF xmlns:rdf="http://www.w3.org/1999/02/22-rdf-syntax-ns#">
      <rdf:Description rdf:about=""/>
   </rdf:RDF>
</x:xmpmeta>
                                                                                                    
                                                                                                    
                                                                                                    
                                                                                                    
                                                                                                    
                                                                                                    
                                                                                                    
                                                                                                    
                                                                                                    
                                                                                                    
                                                                                                    
                                                                                                    
                                                                                                    
                                                                                                    
                                                                                                    
                                                                                                    
                                                                                                    
                                                                                                    
                                                                                                    
                                                                                                    
                           
<?xpacket end="w"?></metadata>
<defs>
    <style>
      .cls-1 {
        fill: #65c5b3;
      }

      .cls-1, .cls-2 {
        fill-rule: evenodd;
      }

      .cls-2 {
        fill: #dfe33e;
      }
    </style>
  </defs>
  <path id="Color_Fill_1" data-name="Color Fill 1" class="cls-1" d="M482.93,446.365C470.55,373.081,464.786,298.983,464,224.273a9.646,9.646,0,0,1,1.217-4.756,4.487,4.487,0,0,1-2.8-2.064C434.8,165.3,401.228,117.246,366.209,70,315.24,122.257,270.01,179.986,214.4,227.682a18.049,18.049,0,0,1-3.955,2.554C213.59,287,216.012,343.794,214.42,400.6c-0.3,10.851-35.313,15.272-36.8,3.305a21.808,21.808,0,0,1-8.563,1.742c-47.1.252-94.249,3.11-141.047-3.322,0.647,0.1.314,0.049-.012,0C71.7,491.552,163.391,553,269.442,553c88.509,0,164.6-40.2,213.557-106.227-1.5,1.795,0,0-.069-0.408"/>
  <path id="Color_Fill_2" data-name="Color Fill 2" class="cls-2" d="M36.09,374.941c44.963,6.688,90.125,3.934,135.385,3.694a26.792,26.792,0,0,1,5.641.53c0.507-52.618-2.01-105.21-4.992-157.768-0.321-5.6,9.052-9.539,18.425-10.3C248.235,161.319,294.2,99.83,348.284,46.355c0.088-.534.92-1.34,2.3-2.291,3.93-3.849,8.462-8.141,12.489-11.9A267.579,267.579,0,0,0,268.507,15C120.224,15,0,135.35,0,283.829a268.327,268.327,0,0,0,17.959,96.8,22.687,22.687,0,0,1,18.13-5.69M497.814,207.086c0.7,1.313-1.9,3.446-5.972,5.568a9.87,9.87,0,0,1,4.524,8.555C497.013,281.967,509.942,401.5,509.685,402l3.178-6.66C528.945,361.646,537,323.61,537,283.827A268.843,268.843,0,0,0,390.184,44.135C429.2,96.3,467.294,149.344,497.814,207.086"/>
</svg>
